<?xml version="1.0" standalone="no"?>
<!DOCTYPE svg PUBLIC "-//W3C//DTD SVG 20010904//EN"
 "http://www.w3.org/TR/2001/REC-SVG-20010904/DTD/svg10.dtd">
<svg version="1.0" xmlns="http://www.w3.org/2000/svg"
 width="512.000000pt" height="512.000000pt" viewBox="0 0 512.000000 512.000000"
 preserveAspectRatio="xMidYMid meet">
<metadata>
Created by potrace 1.14, written by Peter Selinger 2001-2017
</metadata>
<g transform="translate(0.000000,512.000000) scale(0.100000,-0.100000)"
fill="#000000" stroke="none">
<path d="M211 4674 c-142 -73 -166 -95 -165 -153 1 -27 210 -444 858 -1706
471 -918 865 -1678 874 -1688 41 -46 84 -57 222 -57 144 0 177 9 222 56 14 16
78 131 142 255 125 243 134 274 95 323 -20 25 -181 115 -258 143 -55 21 -95 2
-137 -64 -39 -60 -53 -69 -82 -54 -11 6 -323 603 -778 1491 -490 955 -767
1486 -782 1496 -51 33 -72 29 -211 -42z"/>
<path d="M1334 4677 c-151 -75 -179 -101 -171 -162 3 -27 186 -393 557 -1114
339 -661 555 -1092 560 -1119 4 -25 4 -58 -1 -74 -11 -41 4 -73 49 -102 58
-37 106 -98 164 -210 291 -570 384 -745 406 -770 45 -47 78 -56 222 -56 138 0
181 11 222 56 29 32 258 490 258 515 0 55 -33 85 -174 155 -135 67 -135 67
-173 53 -26 -10 -48 -30 -71 -64 -41 -62 -65 -75 -92 -50 -22 20 -400 755
-400 778 0 27 27 26 91 -5 102 -48 155 -28 199 74 25 59 21 104 -13 135 -12
12 -75 48 -139 82 -142 74 -183 79 -227 30 -21 -23 -34 -29 -49 -25 -24 8 9
-55 -548 1031 -285 555 -449 865 -465 877 -50 36 -67 33 -205 -35z"/>
<path d="M3574 4719 c-18 -20 -18 -21 1 -57 17 -31 40 -47 150 -104 141 -73
183 -86 221 -69 33 14 33 63 0 96 -13 13 -83 53 -155 89 -142 72 -185 81 -217
45z"/>
<path d="M4692 4728 c-20 -20 -14 -56 16 -87 32 -35 279 -161 314 -161 31 0
68 27 68 50 0 38 -51 79 -180 144 -132 67 -191 81 -218 54z"/>
<path d="M3392 4344 c-31 -21 -72 -106 -72 -147 0 -53 32 -83 161 -147 143
-72 185 -77 229 -30 40 42 64 110 56 154 -8 44 -38 68 -173 135 -110 55 -161
64 -201 35z"/>
<path d="M4501 4338 c-13 -11 -35 -46 -49 -76 -22 -48 -23 -59 -13 -93 13 -44
14 -45 164 -123 122 -63 166 -70 211 -35 34 27 68 93 69 135 2 61 -19 80 -154
149 -142 73 -188 81 -228 43z"/>
<path d="M3141 3846 c-31 -17 -81 -112 -81 -152 0 -52 35 -82 174 -151 136
-67 153 -70 203 -37 31 20 73 106 73 148 0 51 -29 77 -161 146 -121 63 -162
72 -208 46z"/>
<path d="M4252 3844 c-32 -22 -72 -107 -72 -151 0 -21 8 -47 18 -59 19 -23
231 -137 274 -148 46 -11 92 16 122 70 36 64 41 93 23 136 -13 31 -30 43 -145
102 -137 69 -179 79 -220 50z"/>
<path d="M2875 3338 c-29 -23 -75 -110 -75 -143 0 -51 37 -83 175 -152 l135
-67 42 14 c38 13 47 23 77 82 30 60 32 70 22 101 -16 47 -27 56 -163 126 -130
67 -168 74 -213 39z"/>
<path d="M3999 3345 c-32 -17 -79 -103 -79 -143 0 -60 17 -77 149 -148 178
-97 220 -94 277 18 52 104 32 137 -135 222 -133 68 -167 76 -212 51z"/>
<path d="M3760 2853 c-27 -10 -52 -38 -76 -85 -51 -100 -27 -136 147 -227 120
-63 151 -71 197 -47 38 20 82 103 82 155 0 57 -22 77 -169 150 -114 58 -146
67 -181 54z"/>
<path d="M3492 2345 c-25 -11 -40 -29 -63 -79 -52 -110 -35 -136 150 -230 71
-36 122 -56 145 -56 46 0 88 36 115 101 24 54 22 84 -5 127 -16 24 -263 152
-293 152 -9 -1 -31 -7 -49 -15z"/>
<path d="M63 875 c-58 -25 -65 -54 -61 -257 l3 -180 33 -29 32 -29 2490 0
2490 0 32 29 33 29 3 180 c4 205 -3 233 -63 258 -51 21 -4943 20 -4992 -1z"/>
</g>
</svg>
